<mxfile host="app.diagrams.net" modified="2021-11-22T13:16:36.121Z" agent="5.0 (Macintosh)" etag="xg_rEk7m_RyWuQPjQdff" version="15.7.3" type="github">
  <diagram id="cCoEdJMjLygmv56DBtWF" name="Page-1">
    <mxGraphModel dx="706" dy="402" grid="0" gridSize="10" guides="1" tooltips="1" connect="1" arrows="1" fold="1" page="1" pageScale="1" pageWidth="850" pageHeight="1100" math="0" shadow="0">
      <root>
        <mxCell id="0" />
        <mxCell id="1" parent="0" />
        <mxCell id="KceS46IqUDlQUfkdjJol-10" style="edgeStyle=orthogonalEdgeStyle;rounded=0;orthogonalLoop=1;jettySize=auto;html=1;exitX=0;exitY=0.25;exitDx=0;exitDy=0;entryX=1;entryY=0.25;entryDx=0;entryDy=0;" edge="1" parent="1" source="KceS46IqUDlQUfkdjJol-1" target="KceS46IqUDlQUfkdjJol-4">
          <mxGeometry relative="1" as="geometry" />
        </mxCell>
        <mxCell id="KceS46IqUDlQUfkdjJol-12" style="edgeStyle=orthogonalEdgeStyle;rounded=0;orthogonalLoop=1;jettySize=auto;html=1;exitX=0.75;exitY=1;exitDx=0;exitDy=0;entryX=0.75;entryY=0;entryDx=0;entryDy=0;" edge="1" parent="1" source="KceS46IqUDlQUfkdjJol-1" target="KceS46IqUDlQUfkdjJol-3">
          <mxGeometry relative="1" as="geometry" />
        </mxCell>
        <mxCell id="KceS46IqUDlQUfkdjJol-1" value="Presenter" style="rounded=1;whiteSpace=wrap;html=1;fillColor=#f8cecc;strokeColor=#b85450;" vertex="1" parent="1">
          <mxGeometry x="360" y="80" width="120" height="60" as="geometry" />
        </mxCell>
        <mxCell id="KceS46IqUDlQUfkdjJol-7" style="edgeStyle=orthogonalEdgeStyle;rounded=0;orthogonalLoop=1;jettySize=auto;html=1;" edge="1" parent="1" source="KceS46IqUDlQUfkdjJol-2" target="KceS46IqUDlQUfkdjJol-4">
          <mxGeometry relative="1" as="geometry" />
        </mxCell>
        <mxCell id="KceS46IqUDlQUfkdjJol-19" style="edgeStyle=orthogonalEdgeStyle;rounded=0;orthogonalLoop=1;jettySize=auto;html=1;exitX=0;exitY=0.25;exitDx=0;exitDy=0;entryX=1;entryY=0.5;entryDx=0;entryDy=0;entryPerimeter=0;" edge="1" parent="1" source="KceS46IqUDlQUfkdjJol-2" target="KceS46IqUDlQUfkdjJol-5">
          <mxGeometry relative="1" as="geometry" />
        </mxCell>
        <mxCell id="KceS46IqUDlQUfkdjJol-2" value="Model" style="rounded=1;whiteSpace=wrap;html=1;fillColor=#dae8fc;strokeColor=#6c8ebf;" vertex="1" parent="1">
          <mxGeometry x="190" y="170" width="120" height="60" as="geometry" />
        </mxCell>
        <mxCell id="KceS46IqUDlQUfkdjJol-11" style="edgeStyle=orthogonalEdgeStyle;rounded=0;orthogonalLoop=1;jettySize=auto;html=1;exitX=0.5;exitY=0;exitDx=0;exitDy=0;entryX=0.5;entryY=1;entryDx=0;entryDy=0;" edge="1" parent="1" source="KceS46IqUDlQUfkdjJol-3" target="KceS46IqUDlQUfkdjJol-1">
          <mxGeometry relative="1" as="geometry" />
        </mxCell>
        <mxCell id="KceS46IqUDlQUfkdjJol-3" value="View" style="rounded=1;whiteSpace=wrap;html=1;fillColor=#d5e8d4;strokeColor=#82b366;" vertex="1" parent="1">
          <mxGeometry x="360" y="170" width="120" height="60" as="geometry" />
        </mxCell>
        <mxCell id="KceS46IqUDlQUfkdjJol-8" style="edgeStyle=orthogonalEdgeStyle;rounded=0;orthogonalLoop=1;jettySize=auto;html=1;exitX=0.75;exitY=1;exitDx=0;exitDy=0;entryX=0.75;entryY=0;entryDx=0;entryDy=0;" edge="1" parent="1" source="KceS46IqUDlQUfkdjJol-4" target="KceS46IqUDlQUfkdjJol-2">
          <mxGeometry relative="1" as="geometry" />
        </mxCell>
        <mxCell id="KceS46IqUDlQUfkdjJol-9" style="edgeStyle=orthogonalEdgeStyle;rounded=0;orthogonalLoop=1;jettySize=auto;html=1;entryX=0;entryY=0.5;entryDx=0;entryDy=0;" edge="1" parent="1" source="KceS46IqUDlQUfkdjJol-4" target="KceS46IqUDlQUfkdjJol-1">
          <mxGeometry relative="1" as="geometry" />
        </mxCell>
        <mxCell id="KceS46IqUDlQUfkdjJol-4" value="Service" style="rounded=1;whiteSpace=wrap;html=1;fillColor=#fff2cc;strokeColor=#d6b656;" vertex="1" parent="1">
          <mxGeometry x="190" y="80" width="120" height="60" as="geometry" />
        </mxCell>
        <mxCell id="KceS46IqUDlQUfkdjJol-18" style="edgeStyle=orthogonalEdgeStyle;rounded=0;orthogonalLoop=1;jettySize=auto;html=1;exitX=1;exitY=1;exitDx=0;exitDy=-15;exitPerimeter=0;entryX=0;entryY=0.75;entryDx=0;entryDy=0;" edge="1" parent="1" source="KceS46IqUDlQUfkdjJol-5" target="KceS46IqUDlQUfkdjJol-2">
          <mxGeometry relative="1" as="geometry" />
        </mxCell>
        <mxCell id="KceS46IqUDlQUfkdjJol-5" value="DB" style="shape=cylinder3;whiteSpace=wrap;html=1;boundedLbl=1;backgroundOutline=1;size=15;fillColor=#dae8fc;strokeColor=#6c8ebf;" vertex="1" parent="1">
          <mxGeometry x="80" y="160" width="60" height="80" as="geometry" />
        </mxCell>
      </root>
    </mxGraphModel>
  </diagram>
</mxfile>
